HIERARCHY
ROOT Pelvis
{
	OFFSET 0.000000 0.941512 0.000000
	CHANNELS 6 Xposition Yposition Zposition Zrotation Yrotation Xrotation 
	JOINT Pelvis_L_Hip
	{
		OFFSET 0.000000 0.000000 0.000000
		CHANNELS 3 Zrotation Yrotation Xrotation
		JOINT L_Hip
		{
			OFFSET 0.062321 -0.080322 -0.016990
			CHANNELS 3 Zrotation Yrotation Xrotation
			JOINT L_Knee
			{
				OFFSET 0.093051 -0.381305 -0.029784
				CHANNELS 3 Zrotation Yrotation Xrotation
				JOINT L_Ankle
				{
					OFFSET -0.010371 -0.431000 -0.033614
					CHANNELS 3 Zrotation Yrotation Xrotation
					End Site #name: L_Foot
					{
						OFFSET 0.069299 -0.038670 0.119418
					}
				}
			}
		}
	}
	JOINT Pelvis_R_Hip
	{
		OFFSET 0.000000 0.000000 0.000000
		CHANNELS 3 Zrotation Yrotation Xrotation
		JOINT R_Hip
		{
			OFFSET -0.055334 -0.094904 -0.002373
			CHANNELS 3 Zrotation Yrotation Xrotation
			JOINT R_Knee
			{
				OFFSET -0.064207 -0.384370 -0.019592
				CHANNELS 3 Zrotation Yrotation Xrotation
				JOINT R_Ankle
				{
					OFFSET 0.025418 -0.419734 -0.065953
					CHANNELS 3 Zrotation Yrotation Xrotation
					End Site #name: R_Foot
					{
						OFFSET -0.057233 -0.039888 0.132134
					}
				}
			}
		}
	}
	JOINT Pelvis_Spine1
	{
		OFFSET 0.000000 0.000000 0.000000
		CHANNELS 3 Zrotation Yrotation Xrotation
		JOINT Spine1
		{
			OFFSET -0.005562 0.124093 -0.043360
			CHANNELS 3 Zrotation Yrotation Xrotation
			JOINT Spine2
			{
				OFFSET 0.012244 0.139499 0.029894
				CHANNELS 3 Zrotation Yrotation Xrotation
				JOINT Spine3
				{
					OFFSET -0.002556 0.056561 0.009225
					CHANNELS 3 Zrotation Yrotation Xrotation
					JOINT Spine3_Neck
					{
						OFFSET 0.000000 0.000000 0.000000
						CHANNELS 3 Zrotation Yrotation Xrotation
						JOINT Neck
						{
							OFFSET -0.005205 0.217920 -0.024551
							CHANNELS 3 Zrotation Yrotation Xrotation
							End Site #name: Head
							{
								OFFSET 0.002365 0.091850 0.046637
							}
						}
					}
					JOINT Spine3_L_Collar
					{
						OFFSET 0.000000 0.000000 0.000000
						CHANNELS 3 Zrotation Yrotation Xrotation
						JOINT L_Collar
						{
							OFFSET 0.072225 0.116603 -0.009480
							CHANNELS 3 Zrotation Yrotation Xrotation
							JOINT L_Shoulder
							{
								OFFSET 0.115937 -0.058643 -0.021018
								CHANNELS 3 Zrotation Yrotation Xrotation
								JOINT L_Elbow
								{
									OFFSET 0.021994 -0.254722 -0.024492
									CHANNELS 3 Zrotation Yrotation Xrotation
									End Site #name: L_Wrist
									{
										OFFSET 0.048810 -0.240214 0.103329
									}
								}
							}
						}
					}
					JOINT Spine3_R_Collar
					{
						OFFSET 0.000000 0.000000 0.000000
						CHANNELS 3 Zrotation Yrotation Xrotation
						JOINT R_Collar
						{
							OFFSET -0.073372 0.120704 -0.024611
							CHANNELS 3 Zrotation Yrotation Xrotation
							JOINT R_Shoulder
							{
								OFFSET -0.108089 -0.054969 -0.020504
								CHANNELS 3 Zrotation Yrotation Xrotation
								JOINT R_Elbow
								{
									OFFSET -0.033684 -0.260739 0.009889
									CHANNELS 3 Zrotation Yrotation Xrotation
									End Site #name: R_Wrist
									{
										OFFSET -0.067980 -0.232763 0.118463
									}
								}
							}
						}
					}
				}
			}
		}
	}
}
MOTION
Frames: 8
Frame Time: 0.041667
0.006587 0.943139 -0.015011 -4.835295 -5.727487 -6.002552 0.000000 0.000000 0.000000 3.605192 0.463984 3.185338 2.693982 -0.346917 2.664290 2.308635 10.087233 2.259966 0.000000 0.000000 0.000000 1.779271 -0.722096 3.575150 -0.781306 0.029568 -1.283568 0.255440 -8.368537 7.187842 0.000000 0.000000 0.000000 1.735775 -0.885476 5.505216 -1.282190 0.342324 2.407861 6.372038 3.251114 0.528272 0.000000 0.000000 0.000000 -4.028676 1.961722 -4.081446 0.000000 0.000000 0.000000 5.815478 -7.692003 -3.390368 -21.466141 4.368219 7.624019 0.183754 -1.992319 -9.902740 0.000000 0.000000 0.000000 -15.149063 15.003370 -7.362334 20.561167 -5.190057 18.851431 0.525622 4.210406 -12.442193 
0.006745 0.943117 -0.015289 -4.857372 -5.838576 -6.009691 0.000000 0.000000 0.000000 3.622192 0.452711 3.135926 2.672812 -0.351220 2.802066 2.367756 10.202397 2.227238 0.000000 0.000000 0.000000 1.812695 -0.712431 3.507576 -0.797193 0.036936 -1.206971 0.270820 -8.309443 7.159425 0.000000 0.000000 0.000000 1.906885 -0.928221 5.502840 -1.365892 0.353967 2.346390 6.248288 3.197898 0.470048 0.000000 0.000000 0.000000 -4.094529 1.992024 -4.028181 0.000000 0.000000 0.000000 5.474259 -7.575444 -3.358085 -21.807206 4.335713 7.287237 0.915108 -1.481977 -9.358332 0.000000 0.000000 0.000000 -15.024384 14.746550 -7.170222 20.728279 -5.280117 19.071709 0.212637 4.048110 -12.572555 
0.006834 0.943110 -0.015884 -4.836041 -5.873097 -5.978972 0.000000 0.000000 0.000000 3.597294 0.425569 2.999841 2.653901 -0.355528 2.939891 2.396419 10.266832 2.218089 0.000000 0.000000 0.000000 1.779255 -0.683349 3.358668 -0.776223 0.042751 -1.078801 0.260112 -8.320792 7.140548 0.000000 0.000000 0.000000 1.960756 -0.949748 5.585846 -1.370704 0.344989 2.178501 6.137963 3.091167 0.443643 0.000000 0.000000 0.000000 -4.233854 2.053485 -4.125375 0.000000 0.000000 0.000000 5.543549 -7.602099 -3.369885 -21.941420 4.342327 7.214781 1.257414 -1.217772 -8.959494 0.000000 0.000000 0.000000 -14.936463 14.412250 -6.921240 21.119540 -5.321272 19.037703 -0.462585 3.556554 -12.449401 
0.006845 0.943142 -0.016542 -4.800550 -5.850408 -5.976440 0.000000 0.000000 0.000000 3.568838 0.404419 2.891266 2.630651 -0.357512 3.039323 2.391211 10.270923 2.231925 0.000000 0.000000 0.000000 1.731875 -0.668777 3.296807 -0.760669 0.042547 -1.049751 0.250919 -8.359436 7.156495 0.000000 0.000000 0.000000 1.958261 -0.964029 5.739012 -1.349892 0.326942 1.932420 6.023421 2.919164 0.441487 0.000000 0.000000 0.000000 -4.302657 2.081891 -4.222299 0.000000 0.000000 0.000000 5.845741 -7.775933 -3.446348 -21.858185 4.385743 7.394861 1.242936 -1.181533 -8.748961 0.000000 0.000000 0.000000 -14.885011 14.171322 -6.738023 21.506712 -5.246853 18.657093 -0.968163 3.014049 -11.786637 
0.006835 0.943218 -0.017091 -4.789175 -5.812439 -5.999555 0.000000 0.000000 0.000000 3.570452 0.392054 2.835657 2.610192 -0.357827 3.097369 2.369548 10.244577 2.256010 0.000000 0.000000 0.000000 1.728775 -0.678634 3.353825 -0.781642 0.037051 -1.173627 0.264464 -8.387574 7.219216 0.000000 0.000000 0.000000 1.954111 -0.976882 5.880757 -1.340243 0.310899 1.684241 5.918998 2.723839 0.442166 0.000000 0.000000 0.000000 -4.217773 2.041131 -4.221899 0.000000 0.000000 0.000000 6.095076 -8.015699 -3.568257 -21.709096 4.445706 7.671775 1.056776 -1.231941 -8.512610 0.000000 0.000000 0.000000 -14.889853 14.093690 -6.669966 21.756591 -5.113598 18.161032 -1.025735 2.693989 -10.886027 
0.006882 0.943292 -0.017526 -4.804233 -5.805153 -5.994579 0.000000 0.000000 0.000000 3.588778 0.379558 2.785732 2.604473 -0.358482 3.126177 2.358163 10.240995 2.276714 0.000000 0.000000 0.000000 1.764739 -0.691222 3.409004 -0.824870 0.031266 -1.346178 0.297604 -8.388167 7.300658 0.000000 0.000000 0.000000 1.954714 -0.979764 5.907040 -1.344293 0.301513 1.508763 5.862453 2.584406 0.436985 0.000000 0.000000 0.000000 -4.057746 1.967597 -4.135200 0.000000 0.000000 0.000000 6.176720 -8.220505 -3.685144 -21.719148 4.499831 7.834116 0.996907 -1.177865 -8.095828 0.000000 0.000000 0.000000 -14.958108 14.145799 -6.694413 21.895502 -5.035129 17.877689 -0.786620 2.656722 -10.280877 
0.007017 0.943315 -0.017925 -4.822957 -5.851366 -5.930662 0.000000 0.000000 0.000000 3.596142 0.360953 2.702811 2.607668 -0.359393 3.136855 2.373044 10.294269 2.287557 0.000000 0.000000 0.000000 1.789638 -0.681655 3.343794 -0.849275 0.029419 -1.421432 0.334140 -8.357975 7.355848 0.000000 0.000000 0.000000 1.940658 -0.963596 5.779250 -1.347498 0.297552 1.430485 5.880270 2.568529 0.440005 0.000000 0.000000 0.000000 -3.968346 1.927752 -4.029663 0.000000 0.000000 0.000000 6.167329 -8.308835 -3.739568 -21.931428 4.524858 7.778003 1.144901 -1.009585 -7.645910 0.000000 0.000000 0.000000 -15.046093 14.269570 -6.775245 21.941901 -5.058713 17.932807 -0.597112 2.726660 -10.120119 
0.007218 0.943288 -0.018311 -4.834479 -5.931676 -5.842415 0.000000 0.000000 0.000000 3.593923 0.341525 2.611656 2.598767 -0.358436 3.133797 2.407873 10.388592 2.289115 0.000000 0.000000 0.000000 1.781257 -0.651592 3.177543 -0.840329 0.032338 -1.359395 0.362639 -8.307171 7.368721 0.000000 0.000000 0.000000 1.917905 -0.936479 5.563730 -1.349156 0.297103 1.419566 5.962957 2.682371 0.465645 0.000000 0.000000 0.000000 -3.997555 1.943714 -3.945087 0.000000 0.000000 0.000000 6.194907 -8.259151 -3.707001 -22.168116 4.504911 7.566804 1.296675 -0.889694 -7.440661 0.000000 0.000000 0.000000 -15.118981 14.453858 -6.908564 21.829259 -5.137559 18.211046 -0.497892 2.788859 -10.113627 
